<?xml version="1.0" standalone="no"?>
        <!DOCTYPE svg PUBLIC "-//W3C//DTD SVG 1.1//EN" 
        "http://www.w3.org/Graphics/SVG/1.1/DTD/svg11.dtd"><svg id="changeColor" fill="#DC7633" xmlns="http://www.w3.org/2000/svg" xmlns:xlink="http://www.w3.org/1999/xlink" width="96" zoomAndPan="magnify" viewBox="0 0 375 374.9999" height="96" version="1.0"><defs><path id="pathAttribute" d="M 11.972656 11.972656 L 362.972656 11.972656 L 362.972656 362.972656 L 11.972656 362.972656 Z M 11.972656 11.972656 " fill="#000000"></path></defs><g><path id="pathAttribute" d="M 340.148438 22.917969 C 346.667969 22.917969 352.027344 28.277344 352.027344 34.796875 L 352.027344 340.148438 C 352.027344 346.667969 346.667969 352.027344 340.148438 352.027344 L 34.796875 352.027344 C 28.277344 352.027344 22.917969 346.667969 22.917969 340.148438 L 22.917969 34.796875 C 22.917969 28.277344 28.277344 22.917969 34.796875 22.917969 L 340.148438 22.917969 M 340.148438 11.972656 L 34.796875 11.972656 C 22.222656 11.972656 11.972656 22.222656 11.972656 34.796875 L 11.972656 340.148438 C 11.972656 352.722656 22.222656 362.972656 34.796875 362.972656 L 340.148438 362.972656 C 352.722656 362.972656 362.972656 352.722656 362.972656 340.148438 L 362.972656 34.796875 C 362.972656 22.222656 352.722656 11.972656 340.148438 11.972656 " fill-opacity="1" fill-rule="nonzero" fill="#000000"></path></g><g id="inner-icon" transform="translate(85, 75)"> <svg xmlns="http://www.w3.org/2000/svg" width="199.8" height="199.8" viewBox="0 0 32 32" id="IconChangeColor"> <path d="M25.099 31.812c-0.025 0.12-0.156 0.188-0.375 0.188h-4.183c-0.249 0-0.468-0.109-0.656-0.328l-6.907-8.787-1.932 1.828v6.817c0 0.313-0.151 0.469-0.463 0.469h-3.245c-0.312 0-0.469-0.156-0.469-0.469v-31.061c0-0.308 0.157-0.469 0.469-0.469h3.245c0.312 0 0.463 0.161 0.463 0.469v19.124l8.271-8.359c0.224-0.224 0.443-0.328 0.661-0.328h4.319c0.192 0 0.317 0.077 0.38 0.239 0.063 0.199 0.047 0.339-0.047 0.417l-8.74 8.459 9.115 11.343c0.125 0.141 0.156 0.276 0.093 0.48z" id="mainIconPathAttribute" fill="#000000"></path> </svg> </g></svg>